<svg width="18" height="16" viewBox="0 0 18 16" fill="none" xmlns="http://www.w3.org/2000/svg">
<path d="M17.7237 3.56898C17.5034 2.86921 17.1408 2.22509 16.6596 1.67901C16.1784 1.13292 15.5896 0.697263 14.932 0.400705C13.4256 -0.277647 11.8678 -0.0857102 10.4205 0.960741C9.88873 1.35108 9.41061 1.8127 8.99896 2.33322C8.58732 1.8127 8.10919 1.35108 7.57741 0.960741C6.13271 -0.0909687 4.57234 -0.280277 3.06595 0.398076C2.40934 0.692784 1.82113 1.12628 1.33998 1.67006C0.858826 2.21385 0.495628 2.85562 0.27425 3.5532C0.0365832 4.28758 -0.0480057 5.06475 0.0259348 5.8346C0.0998752 6.60446 0.330704 7.34994 0.703545 8.02297C1.98886 10.342 4.57748 12.9371 8.41543 15.7373C8.58982 15.8647 8.79879 15.9332 9.0131 15.9332C9.22742 15.9332 9.43638 15.8647 9.61077 15.7373C13.4307 12.9423 16.0193 10.3472 17.3072 8.0256C17.6761 7.35333 17.9037 6.60968 17.9754 5.84226C18.0472 5.07483 17.9614 4.30055 17.7237 3.56898Z" fill="#FF1D00"/>
</svg>
