<svg width="19" height="18" viewBox="0 0 19 18" fill="none" xmlns="http://www.w3.org/2000/svg">
<path fill-rule="evenodd" clip-rule="evenodd" d="M3.46379 1.85C2.57253 1.85 1.85002 2.57251 1.85002 3.46377V14.3043C1.85002 15.1956 2.57253 15.9181 3.46379 15.9181H14.3044C15.1956 15.9181 15.9181 15.1956 15.9181 14.3044V8.88406C15.9181 8.41462 16.2987 8.03406 16.7681 8.03406C17.2376 8.03406 17.6181 8.41462 17.6181 8.88406V14.3044C17.6181 16.1345 16.1345 17.6181 14.3044 17.6181H3.46379C1.63365 17.6181 0.150024 16.1345 0.150024 14.3043V3.46377C0.150024 1.63362 1.63365 0.150002 3.46379 0.150002H12.8261C13.2956 0.150002 13.6761 0.53056 13.6761 1C13.6761 1.46944 13.2956 1.85 12.8261 1.85H3.46379ZM18.6011 0.891714C18.933 1.22366 18.933 1.76185 18.6011 2.0938L9.48512 11.2097C9.15318 11.5417 8.61499 11.5417 8.28304 11.2097L5.32652 8.25322C4.99457 7.92127 4.99457 7.38308 5.32652 7.05113C5.65847 6.71919 6.19666 6.71919 6.5286 7.05113L8.88408 9.40662L17.399 0.891714C17.7309 0.559769 18.2691 0.559769 18.6011 0.891714Z" fill="white"/>
</svg>
