<svg width="20" height="20" viewBox="0 0 20 20" fill="none" xmlns="http://www.w3.org/2000/svg">
<path fill-rule="evenodd" clip-rule="evenodd" d="M9.99966 1.85001C5.49854 1.85001 1.84966 5.49889 1.84966 10C1.84966 14.5011 5.49854 18.15 9.99966 18.15C14.5008 18.15 18.1497 14.5011 18.1497 10C18.1497 5.49889 14.5008 1.85001 9.99966 1.85001ZM0.149658 10C0.149658 4.56 4.55965 0.150005 9.99966 0.150005C15.4397 0.150005 19.8497 4.56 19.8497 10C19.8497 15.44 15.4397 19.85 9.99966 19.85C4.55965 19.85 0.149658 15.44 0.149658 10Z" fill="white"/>
<path fill-rule="evenodd" clip-rule="evenodd" d="M9.99966 8.58751C10.4691 8.58751 10.8497 8.96806 10.8497 9.43751V14.5C10.8497 14.9694 10.4691 15.35 9.99966 15.35C9.53022 15.35 9.14966 14.9694 9.14966 14.5V9.43751C9.14966 8.96806 9.53022 8.58751 9.99966 8.58751Z" fill="white"/>
<path fill-rule="evenodd" clip-rule="evenodd" d="M9.99966 5.21251C10.4691 5.21251 10.8497 5.59306 10.8497 6.06251V6.62501C10.8497 7.09445 10.4691 7.47501 9.99966 7.47501C9.53022 7.47501 9.14966 7.09445 9.14966 6.62501V6.06251C9.14966 5.59306 9.53022 5.21251 9.99966 5.21251Z" fill="white"/>
</svg>
