<svg width="19" height="19" viewBox="0 0 19 19" fill="none" xmlns="http://www.w3.org/2000/svg">
<path fill-rule="evenodd" clip-rule="evenodd" d="M9.49966 2.30396C8.0361 2.30396 6.84966 3.4904 6.84966 4.95396C6.84966 6.41751 8.0361 7.60396 9.49966 7.60396C10.9632 7.60396 12.1497 6.41751 12.1497 4.95396C12.1497 3.4904 10.9632 2.30396 9.49966 2.30396ZM5.14966 4.95396C5.14966 2.55152 7.09722 0.603958 9.49966 0.603958C11.9021 0.603958 13.8497 2.55152 13.8497 4.95396C13.8497 7.3564 11.9021 9.30396 9.49966 9.30396C7.09722 9.30396 5.14966 7.3564 5.14966 4.95396Z" fill="white"/>
<path fill-rule="evenodd" clip-rule="evenodd" d="M0.149658 15.5C0.149658 12.8214 2.32108 10.65 4.99966 10.65H13.9997C16.6782 10.65 18.8497 12.8214 18.8497 15.5V18C18.8497 18.4694 18.4691 18.35 17.9997 18.35C17.5302 18.35 17.1497 17.9694 17.1497 17.5V15.5C17.1497 13.7603 15.7394 12.35 13.9997 12.35H4.99966C3.25996 12.35 1.84966 13.7603 1.84966 15.5V17.5C1.84966 17.9694 1.4691 18.35 0.999658 18.35C0.530216 18.35 0.149658 18.4694 0.149658 18L0.149658 15.5Z" fill="white"/>
<path fill-rule="evenodd" clip-rule="evenodd" d="M0.149658 18C0.149658 17.5305 0.530216 17.15 0.999658 17.15L17.9997 17.15C18.4691 17.15 18.8497 17.5306 18.8497 18C18.8497 18.4694 18.4691 18.85 17.9997 18.85H0.999658C0.530216 18.85 0.149658 18.4694 0.149658 18Z" fill="white"/>
</svg>
